<?xml version="1.0" standalone="no"?>
<!DOCTYPE svg PUBLIC "-//W3C//DTD SVG 20010904//EN"
 "http://www.w3.org/TR/2001/REC-SVG-20010904/DTD/svg10.dtd">
<svg version="1.0" xmlns="http://www.w3.org/2000/svg"
 width="1052.000000pt" height="1052.000000pt" viewBox="0 0 1052.000000 1052.000000"
 preserveAspectRatio="xMidYMid meet">
<metadata>
Created by potrace 1.14, written by Peter Selinger 2001-2017
</metadata>
<g transform="translate(0.000000,1052.000000) scale(0.100000,-0.100000)"
fill="#000000" stroke="none">
<path d="M5236 10485 c-9 -13 -16 -29 -16 -35 0 -5 -4 -10 -10 -10 -5 0 -10
-5 -10 -10 0 -12 -52 -94 -63 -98 -4 -2 -5 -8 -1 -13 3 -5 1 -9 -4 -9 -4 0
-19 -19 -32 -42 -13 -24 -28 -47 -32 -53 -17 -20 -128 -187 -128 -192 0 -3
-13 -22 -30 -43 -16 -21 -30 -43 -30 -49 0 -6 -4 -11 -9 -11 -5 0 -12 -8 -15
-17 -3 -10 -18 -31 -32 -48 -14 -16 -37 -49 -51 -72 -14 -24 -29 -43 -33 -43
-5 0 -12 -9 -15 -20 -3 -11 -12 -26 -18 -32 -7 -7 -25 -33 -42 -58 -16 -25
-35 -49 -41 -55 -7 -5 -24 -30 -39 -55 -16 -25 -31 -47 -35 -50 -3 -3 -26 -32
-50 -65 -24 -33 -48 -64 -52 -70 -5 -5 -22 -28 -39 -50 -16 -22 -35 -47 -42
-55 -7 -9 -32 -42 -57 -75 -25 -33 -52 -67 -60 -76 -8 -9 -28 -35 -44 -58 -17
-23 -33 -41 -38 -41 -4 0 -8 -6 -8 -14 0 -8 -3 -16 -8 -18 -4 -1 -40 -43 -80
-93 -39 -49 -82 -101 -94 -115 -13 -14 -43 -50 -68 -80 -24 -30 -51 -62 -60
-71 -8 -9 -35 -40 -60 -70 -25 -30 -55 -64 -67 -77 -13 -13 -23 -25 -23 -27 0
-2 -15 -19 -32 -38 -18 -19 -69 -73 -113 -122 -189 -209 -505 -526 -697 -699
l-47 -43 62 -21 c157 -53 347 -81 543 -77 83 1 155 4 160 8 16 9 84 17 84 9
-2 -29 -775 -812 -1030 -1042 -40 -36 -89 -81 -109 -100 -34 -32 -128 -116
-220 -196 -109 -95 -141 -122 -180 -154 -24 -19 -49 -41 -57 -48 -8 -7 -67
-56 -131 -109 -65 -52 -119 -99 -121 -104 -2 -5 -10 -9 -18 -9 -8 0 -14 -4
-14 -8 0 -5 -11 -15 -25 -22 -14 -7 -25 -16 -25 -20 0 -9 76 -35 130 -44 8 -2
33 -8 55 -14 22 -6 51 -13 65 -16 14 -2 25 -5 25 -6 0 -1 14 -3 30 -5 34 -3
92 -14 115 -20 23 -6 159 -18 217 -19 29 -1 53 -3 53 -6 0 -6 157 -4 285 4 91
5 234 25 310 41 17 4 37 8 45 10 8 2 15 4 15 5 0 1 13 4 30 6 16 3 35 10 42
16 7 6 13 8 13 5 0 -3 26 3 57 14 l57 19 -25 -27 c-58 -65 -645 -648 -753
-748 -202 -186 -258 -237 -351 -320 -38 -33 -73 -64 -79 -70 -15 -13 -79 -68
-146 -125 -29 -25 -60 -52 -69 -60 -9 -8 -39 -33 -66 -55 -28 -21 -52 -42 -55
-45 -3 -3 -39 -33 -80 -66 -41 -32 -80 -63 -86 -69 -7 -5 -37 -30 -68 -54 -40
-31 -53 -47 -44 -52 14 -7 191 -55 238 -64 14 -3 34 -7 46 -10 12 -3 39 -7 60
-10 21 -4 46 -8 54 -10 8 -2 35 -7 60 -10 25 -3 63 -7 85 -10 179 -23 478 -23
635 -1 14 2 44 7 67 10 l42 6 -49 -53 c-27 -28 -50 -55 -50 -59 0 -5 -7 -8
-15 -8 -8 0 -15 -4 -15 -9 0 -8 -346 -355 -496 -498 -174 -165 -303 -285 -434
-403 -46 -41 -96 -87 -112 -103 -16 -15 -31 -27 -33 -27 -2 0 -15 -10 -28 -23
-44 -42 -112 -102 -172 -152 -33 -28 -62 -53 -65 -56 -7 -9 -90 -80 -134 -114
-21 -16 -53 -43 -72 -60 -18 -16 -39 -35 -46 -40 -7 -6 -47 -37 -88 -70 -41
-33 -81 -65 -88 -72 -7 -7 -49 -40 -93 -74 -54 -42 -76 -65 -67 -70 6 -4 16
-5 20 -2 5 2 14 0 21 -5 7 -5 23 -12 37 -14 14 -3 61 -15 105 -26 44 -12 91
-23 105 -26 14 -2 57 -11 95 -19 39 -8 93 -18 120 -21 28 -4 57 -9 65 -11 96
-25 587 -40 755 -22 33 3 82 9 109 11 27 3 76 11 110 17 34 6 72 12 86 14 14
2 25 4 25 5 0 2 17 6 55 14 53 12 67 15 121 30 78 21 274 94 315 117 19 10 34
17 34 14 0 -3 21 7 48 21 26 15 76 42 112 62 36 19 67 39 68 44 2 4 8 8 13 8
21 0 202 135 279 207 19 18 37 29 41 25 26 -26 29 -388 4 -482 -2 -8 -6 -31
-9 -50 -3 -19 -8 -45 -11 -57 -3 -13 -7 -32 -9 -42 -11 -47 -48 -178 -56 -196
-13 -30 -24 -69 -22 -77 1 -5 -2 -8 -8 -8 -6 0 -9 -3 -8 -7 1 -9 -17 -60 -32
-85 -6 -10 -10 -25 -10 -33 0 -8 -5 -15 -10 -15 -6 0 -9 -3 -8 -7 3 -10 -65
-147 -74 -151 -5 -2 -8 -12 -8 -22 0 -10 -4 -20 -8 -22 -5 -1 -24 -29 -43 -61
-19 -32 -38 -66 -44 -75 -44 -74 -231 -322 -252 -335 -29 -18 0 -25 40 -10 23
8 49 16 57 17 8 1 22 5 30 8 8 4 60 21 115 39 55 17 105 36 111 41 7 5 16 8
20 6 5 -1 26 6 48 15 21 9 42 17 45 17 4 0 26 9 49 20 22 11 46 20 51 20 6 0
45 16 87 35 41 19 77 35 79 35 18 0 373 174 474 232 46 26 85 48 87 48 9 0
250 153 255 162 3 5 9 8 12 6 3 -1 17 7 31 20 15 12 29 22 32 22 7 0 77 52 86
65 4 5 8 7 8 3 0 -5 9 0 19 10 11 9 26 22 33 27 57 43 158 125 182 147 21 19
32 24 37 16 4 -7 5 -16 3 -20 -3 -4 -7 -32 -9 -60 -3 -29 -7 -80 -10 -113 -9
-111 -17 -210 -20 -255 -2 -25 -6 -70 -9 -100 -5 -55 -12 -137 -22 -260 -2
-36 -7 -90 -10 -120 -9 -102 -13 -145 -19 -225 -3 -44 -8 -100 -10 -125 -5
-48 -12 -129 -20 -250 -3 -41 -8 -85 -11 -98 l-4 -22 599 0 c565 0 599 1 595
18 -2 9 -6 51 -8 92 -3 41 -8 102 -10 135 -20 235 -25 301 -31 380 -3 39 -7
81 -9 95 -3 14 -7 63 -10 110 -4 47 -9 114 -12 150 -3 36 -7 88 -9 115 -3 28
-7 79 -10 115 -9 103 -16 190 -20 255 -2 33 -5 60 -5 60 -1 0 -3 18 -4 40 -1
23 -5 45 -8 50 -3 6 -2 18 1 28 6 17 10 16 38 -10 66 -61 266 -214 363 -278
25 -17 47 -32 50 -35 3 -3 14 -10 25 -17 11 -6 56 -34 100 -61 82 -51 120 -73
215 -125 30 -16 59 -34 65 -38 5 -5 17 -9 26 -9 10 0 19 -4 21 -9 3 -7 156
-84 268 -134 19 -9 65 -29 103 -46 37 -16 67 -27 67 -24 0 3 6 1 13 -5 7 -6
56 -27 108 -47 52 -20 108 -43 126 -51 17 -8 37 -14 45 -14 8 0 18 -3 22 -7 4
-5 11 -8 14 -9 24 -3 69 -18 81 -28 8 -6 15 -9 15 -7 1 2 33 -7 71 -19 68 -21
84 -25 125 -34 11 -3 25 -8 30 -11 23 -14 7 14 -25 45 -19 19 -35 38 -35 42 0
5 -10 19 -22 32 -13 13 -30 33 -38 46 -8 12 -21 28 -27 36 -7 7 -13 17 -13 22
0 6 -4 12 -9 14 -22 8 -207 314 -241 398 -8 19 -17 37 -20 40 -19 15 -132 326
-146 400 -9 51 -11 59 -14 63 -2 3 -7 26 -15 71 -4 21 -8 46 -10 56 -24 125
-23 443 2 483 3 4 24 -9 46 -30 23 -21 57 -49 75 -63 19 -14 39 -30 46 -36 24
-22 194 -135 226 -150 8 -4 27 -16 43 -26 15 -11 27 -17 27 -14 0 4 18 -5 40
-19 22 -14 43 -25 46 -25 4 0 25 -9 48 -19 85 -40 136 -61 146 -61 6 0 18 -4
28 -9 39 -22 326 -97 402 -106 8 -1 34 -5 58 -9 131 -24 241 -30 482 -29 280
2 378 9 392 28 5 6 8 6 8 -1 0 -8 20 -7 68 2 37 7 85 15 107 18 43 7 74 12
115 21 14 3 36 8 50 11 14 3 36 7 50 10 32 7 131 34 150 41 21 9 28 10 48 12
9 1 23 5 31 10 12 8 12 11 0 23 -18 17 -67 56 -109 88 -18 14 -38 30 -44 35
-6 6 -27 22 -48 37 -20 15 -42 33 -50 40 -7 7 -51 44 -98 82 -47 38 -89 74
-95 80 -5 6 -35 31 -65 56 -30 25 -72 60 -92 79 -21 19 -48 41 -60 49 -12 9
-29 23 -38 31 -9 9 -51 48 -95 86 -97 87 -171 153 -298 269 -244 220 -947 910
-947 928 0 5 10 6 23 4 24 -6 85 -14 162 -22 74 -8 349 -9 435 0 180 16 299
33 395 56 28 6 61 14 75 16 14 3 57 14 95 26 39 11 75 21 82 22 28 4 19 16
-62 80 -47 37 -92 74 -99 82 -8 8 -17 14 -20 14 -3 0 -14 8 -24 17 -10 10 -30
27 -43 38 -155 128 -179 148 -198 165 -9 9 -45 40 -81 70 -36 30 -70 60 -76
65 -6 6 -44 39 -84 75 -41 36 -86 76 -101 90 -15 14 -69 63 -120 110 -192 176
-272 253 -582 563 -176 175 -317 321 -314 324 3 2 16 -1 28 -8 13 -7 39 -16
59 -21 19 -5 42 -11 50 -13 29 -8 137 -34 161 -38 13 -3 44 -8 69 -12 25 -4
54 -9 65 -11 94 -19 508 -19 595 0 14 3 49 8 79 11 29 3 56 7 60 9 3 2 24 7
46 10 82 13 114 20 163 35 18 5 33 9 35 9 8 -2 127 36 127 41 0 3 -22 22 -48
41 -26 19 -52 40 -58 45 -6 6 -25 21 -43 35 -18 14 -38 30 -44 35 -7 6 -48 40
-92 75 -43 36 -86 72 -95 80 -8 8 -37 33 -65 55 -27 22 -56 47 -65 55 -17 16
-128 115 -194 171 -39 34 -49 44 -196 179 -140 130 -366 349 -530 515 -199
201 -329 335 -326 335 2 0 -37 41 -85 92 -49 50 -89 95 -89 100 0 5 4 7 8 4
47 -29 507 -25 563 5 9 4 18 6 20 4 3 -2 22 1 44 6 22 5 51 12 65 15 14 3 48
13 75 22 28 9 53 15 58 14 18 -5 4 20 -28 50 -20 18 -59 55 -88 81 -59 56
-416 407 -412 407 1 0 -21 24 -49 53 -28 28 -94 99 -146 156 -52 57 -105 115
-118 128 -13 12 -21 23 -19 23 3 0 -16 22 -42 49 -25 27 -55 61 -66 75 -11 15
-44 53 -73 84 -28 31 -55 65 -58 74 -3 10 -9 18 -13 18 -4 0 -49 51 -99 113
-49 61 -100 123 -111 137 -23 28 -22 27 -71 90 -19 25 -37 47 -40 50 -3 3 -25
32 -50 65 -25 33 -50 66 -57 75 -20 25 -97 126 -118 156 -11 15 -25 33 -32 39
-7 7 -9 15 -6 19 4 3 2 6 -4 6 -6 0 -26 23 -44 51 -18 28 -37 56 -43 62 -17
18 -166 226 -166 232 0 3 -5 11 -10 18 -6 7 -29 37 -51 67 -21 30 -43 60 -48
65 -4 6 -10 15 -12 20 -4 10 -262 402 -300 457 -11 15 -19 31 -19 35 -1 9 -36
53 -43 53 -3 0 -12 -11 -21 -25z"/>
</g>
</svg>
