<?xml version="1.0" encoding="UTF-8"?>
<svg id="Camada_2" data-name="Camada 2" xmlns="http://www.w3.org/2000/svg" xmlns:xlink="http://www.w3.org/1999/xlink" viewBox="0 0 917.58 1052.22">
  <defs>
    <style>
      .cls-1 {
        fill: url(#linear-gradient-2);
      }

      .cls-2 {
        fill: url(#linear-gradient-5);
      }

      .cls-3 {
        fill: url(#linear-gradient-3);
      }

      .cls-4 {
        fill: url(#linear-gradient);
      }

      .cls-5 {
        fill: url(#linear-gradient-4);
      }
    </style>
    <linearGradient id="linear-gradient" x1="458.78" y1="1052.22" x2="458.78" y2="830.71" gradientUnits="userSpaceOnUse">
      <stop offset="0" stop-color="#cf8b1e"/>
      <stop offset=".35" stop-color="#b57111"/>
      <stop offset=".75" stop-color="#934f00"/>
      <stop offset=".76" stop-color="#934f00"/>
    </linearGradient>
    <linearGradient id="linear-gradient-2" x1="458.79" y1="367.83" x2="458.79" y2="990.24" gradientUnits="userSpaceOnUse">
      <stop offset="0" stop-color="#1a871d"/>
      <stop offset="1" stop-color="#56c359"/>
    </linearGradient>
    <linearGradient id="linear-gradient-3" x1="458.79" y1="250.99" x2="458.79" y2="769.55" xlink:href="#linear-gradient-2"/>
    <linearGradient id="linear-gradient-4" x1="458.79" y1="112.51" x2="458.79" y2="592.13" xlink:href="#linear-gradient-2"/>
    <linearGradient id="linear-gradient-5" x1="458.79" y1="0" x2="458.79" y2="381.53" xlink:href="#linear-gradient-2"/>
  </defs>
  <g id="Layer_1" data-name="Layer 1">
    <g>
      <polygon class="cls-4" points="518.38 1052.22 399.19 1052.22 417.73 830.71 499.84 830.71 518.38 1052.22"/>
      <path class="cls-1" d="M458.79,833.75c75.96,112.95,246.59,156.49,246.59,156.49-83.15-96.48-63.08-176.48-63.08-176.48,111.83,103.55,275.28,44.72,275.28,44.72-262.37-204.74-458.78-490.64-458.78-490.64,0,0-196.42,285.9-458.79,490.64,0,0,163.44,58.83,275.28-44.72,0,0,20.07,80-63.08,176.48,0,0,170.61-43.53,246.6-156.49Z"/>
      <path class="cls-3" d="M458.79,639.18c63.29,94.1,205.44,130.37,205.44,130.37-69.28-80.39-52.56-147.04-52.56-147.04,93.16,86.27,229.35,37.25,229.35,37.25-218.59-170.56-382.23-408.77-382.23-408.77,0,0-163.64,238.21-382.24,408.77,0,0,136.17,49.02,229.34-37.25,0,0,16.73,66.65-52.56,147.04,0,0,142.15-36.27,205.46-130.37Z"/>
      <path class="cls-5" d="M458.79,471.54c58.54,87.05,190.01,120.59,190.01,120.59-64.07-74.35-48.6-136.01-48.6-136.01,86.16,79.79,212.13,34.45,212.13,34.45C610.14,332.83,458.79,112.51,458.79,112.51c0,0-151.35,220.32-353.53,378.07,0,0,125.95,45.34,212.11-34.45,0,0,15.48,61.65-48.6,136.01,0,0,131.46-33.54,190.02-120.59Z"/>
      <path class="cls-2" d="M458.79,285.62c40.53,69.24,131.53,95.91,131.53,95.91-44.36-59.14-33.64-108.18-33.64-108.18,59.65,63.46,146.83,27.41,146.83,27.41C563.56,175.27,458.79,0,458.79,0c0,0-104.78,175.27-244.73,300.76,0,0,87.18,36.05,146.84-27.41,0,0,10.7,49.04-33.66,108.18,0,0,91.01-26.67,131.54-95.91Z"/>
    </g>
  </g>
</svg>